<svg viewBox="0 0 600 600" xmlns="http://www.w3.org/2000/svg">
    <path d="M531.77 202.199C547.374 182.631 567.572 162.729 573.155 137.464C573.66 135.178 572.092 132.74 569.592 132.792C516.728 134.016 466.8 152.891 414.846 160.328C412.83 108.151 415.554 55.8749 411.71 3.75494C411.518 1.15601 408.658 -1.08879 406.153 0.567475C396.215 7.16121 388.429 16.0101 380.372 24.6928C370.419 35.422 358.965 44.6661 348.793 55.2195C338.215 66.2039 328.148 77.6781 317.454 88.5635C312.444 93.6624 307.298 98.3968 302.736 103.913C297.678 110.027 293.131 115.246 284.501 113.132C278.839 111.751 273.277 107.033 268.506 103.866C262.704 100.022 256.673 96.5691 250.913 92.642C238.585 84.2357 227.08 74.6833 214.866 66.1113C193.132 50.866 165.653 42.502 146.809 23.4033C144.314 20.8773 139.387 23.419 140.642 26.9971C149.257 51.5024 149.512 77.9504 155.178 103.164C160.788 128.133 168.47 152.685 171.433 178.169C147.064 178.409 122.714 179.596 98.6262 174.966C87.1732 172.763 75.5902 170.851 64.2142 168.336C54.782 166.252 45.7036 164.237 36.0476 165.903C33.6049 166.32 32.7976 169.398 33.8445 171.325C39.2352 181.299 47.1726 189.523 52.8032 199.356C59.2616 210.622 66.7818 220.883 74.2405 231.507C88.2978 251.533 102.59 271.58 116.167 291.955C86.4485 302.132 60.2872 321.439 28.6258 325.829C25.2352 326.298 25.3341 331.059 27.7456 332.574C36.756 338.241 44.3296 345.506 52.0736 352.741C59.6674 359.835 67.8496 365.418 76.319 371.371C91.231 381.845 103.98 394.778 120.163 403.007C95.351 415.127 64.0803 420.778 48.6843 445.419C47.877 446.711 48.0124 448.893 49.2572 449.893C58.8717 457.623 71.9919 459.466 83.7159 462.003C100.107 465.55 115.481 472.477 131.435 477.519C120.263 498.029 104.06 519.675 105.055 543.732C105.138 545.664 106.674 547.519 108.742 547.42C129.269 546.451 149.862 542.357 170.425 544.44C168.732 554.31 167.081 564.18 166.883 574.232C166.826 577.102 170.039 578.732 172.44 577.42C184.425 570.842 195.534 562.727 209.096 559.748C211.451 561.712 213.914 563.592 216.513 565.347C235.909 578.467 261.972 580.221 284.596 582.669C305.705 584.956 327.216 580.419 346.533 572.024C353.288 569.081 359.642 565.44 365.564 561.227C365.647 561.248 365.72 561.284 365.809 561.31C381.121 564.706 395.877 570.112 411.147 573.675C414.027 574.346 416.215 571.919 415.689 569.133C413.757 558.971 407.96 548.966 407.496 538.534C419.673 539.097 432.157 538.925 444.089 541.362C455.553 543.706 466.48 548.107 477.923 550.592C480.798 551.217 483.001 548.873 482.464 546.05C479.49 530.419 468.396 518.91 459.339 506.466C449.615 493.117 443.839 477.466 434.402 463.841C446.074 459.695 458.308 457.455 469.995 453.304C483.922 448.356 496.615 441.789 509.62 434.794C511.365 433.851 511.964 431.419 510.943 429.747C497.782 408.148 472.766 396.82 459.459 375.611C492.298 361.46 525.995 349.141 554.959 327.632C557.168 325.991 557.485 322.846 554.959 321.262C528.475 304.606 502.011 288.298 472.803 277.002C482.876 263.95 493.501 251.346 503.907 238.565C513.569 226.69 522.246 214.133 531.767 202.196L531.77 202.199ZM318.036 573.506C297.323 577.953 276.676 574.485 256.058 571.391C233.787 568.052 215.328 558.547 200.818 541.219C187.094 524.823 177.927 503.766 170.578 483.922C167.031 474.343 163.531 464.562 160.963 454.667C157.937 443.021 158.203 430.782 155.161 419.12C142.708 371.23 146.223 319.016 157.635 271.134C162.64 250.144 170.89 229.874 182.739 211.827C193.432 195.54 208.223 182.671 222.64 169.687C223.489 169.499 224.307 168.994 224.89 168.036C225.114 167.676 225.359 167.348 225.609 167.005C227.578 165.213 229.536 163.421 231.468 161.609C237.666 157.791 245.744 156.671 252.723 155.036C265.676 151.999 276.483 145.702 290.192 145.536C302.786 145.385 315.906 148.838 327.78 152.781C333.572 154.708 339.082 156.161 345.103 157.26C353.916 158.88 357.931 164.203 363.092 170.844C370.061 179.802 378.556 185.546 387.91 191.745C400.582 200.146 410.383 213.646 418.67 226.157C434.284 249.736 435.648 277.954 434.482 305.34C433.919 318.564 432.289 331.736 430.695 344.867C428.971 359.143 428.976 373.367 428.18 387.705C427.383 402.065 422.44 414.913 418.138 428.465C413.779 442.205 410.091 456.153 406.779 470.173C400.805 495.476 396.513 519.356 378.904 539.652C363.325 557.605 340.987 568.584 318.035 573.512L318.036 573.506ZM463.13 280.745C463.833 281.808 465.177 282.516 466.572 282.521C495.103 292.98 520.864 308.573 546.494 324.657C517.603 344.819 484.452 356.709 452.311 370.725C450.415 371.554 450.129 374.168 450.988 375.772C463.056 398.351 488.103 409.627 502.457 430.288C491.296 436.33 480.223 442.361 468.036 446.195C454.635 450.409 440.651 453.19 427.64 458.56C424.916 459.685 424.182 462.398 426.01 464.726C437.036 478.773 442.879 495.653 452.963 510.19C460.234 520.68 469.436 529.945 473.692 541.966C463.364 539.268 453.271 535.716 442.796 533.576C430.223 531.008 416.66 531.747 403.895 530.971C401.754 530.846 400.385 532.758 400.208 534.659C399.208 545.185 404.077 555.028 407.062 565.039C395.661 562.039 384.468 558.305 373.031 555.435C381.26 548.456 388.479 540.284 394.567 531.241C408.124 511.105 410.594 485.315 416.28 462.329C422.707 436.36 434.254 411.371 435.754 384.475C436.493 371.199 436.483 358.079 438.092 344.855C439.827 330.579 441.41 316.308 442.019 301.928C443.056 277.469 440.988 253.121 430.004 230.917C424.53 219.86 416.452 209.964 408.446 200.647C399.582 190.334 388.848 184.439 378.29 176.225C369.728 169.559 365.473 158.627 356.025 153.121C351.707 150.606 346.364 149.976 341.546 149.132C334.645 147.924 328.13 144.986 321.41 143.049C310.457 139.892 298.541 138.033 287.14 138.174C274.895 138.325 264.41 144.095 252.942 147.351C244.385 149.778 235.297 151.017 227.926 155.273C227.447 155.439 226.968 155.705 226.531 156.122C226.515 156.137 226.499 156.153 226.478 156.168C224.062 157.752 221.848 159.71 219.952 162.215C203.578 177.262 187.046 191.819 174.698 210.642C161.151 231.273 153.38 255.497 148.198 279.434C142.219 307.022 139.963 335.387 140.375 363.574C140.562 376.35 141.167 389.339 143.198 401.97C144.234 408.434 146.333 414.762 148.067 421.063C150.302 429.188 150.896 437.631 151.989 445.965C155.073 469.454 165.25 494.011 175.973 515.033C183.244 529.293 191.561 542.71 202.651 553.798C192.599 556.866 183.724 562.387 174.651 567.673C175.328 559.126 176.859 550.694 178.297 542.219C178.593 540.459 177.849 537.969 175.718 537.678C154.536 534.824 133.62 538.501 112.489 539.813C113.421 517.199 130.093 496.537 140.005 477.152C141.094 475.022 140.182 472.417 137.802 471.73C122.386 467.272 107.698 460.569 92.2087 456.381C81.0836 453.37 66.9954 452.818 56.958 446.381C73.494 423.61 107.218 419.271 130.437 405.927C133.421 404.209 132.395 400.281 129.556 399.183C110.614 391.875 96.2125 376.781 80.0832 364.98C71.4529 358.662 63.0365 352.834 55.1818 345.491C49.9006 340.563 44.6402 335.725 38.9418 331.376C68.6352 324.761 93.8791 306.288 122.963 297.475C125.145 296.818 126.515 294.1 125.166 292.053C110.806 270.287 94.6556 249.761 80.6502 227.75C74.2909 217.75 66.5769 208.802 60.7076 198.453C55.5409 189.338 48.7232 181.354 43.1769 172.531C52.4425 172.344 61.6356 175.542 70.7076 177.115C82.5409 179.177 94.2862 181.87 106.161 183.708C129.354 187.307 153.03 185.568 176.39 185.484C180.02 185.469 180.869 181.182 178.968 179.151C176.166 153.703 168.958 129.104 163.051 104.26C157.811 82.187 156.916 59.1097 151.395 37.1297C169.613 51.1297 192.312 59.567 211.181 72.463C224.369 81.4734 236.635 91.7657 249.837 100.77C260.416 107.989 272.701 117.806 285.28 120.884C296.129 123.541 303.635 114.379 309.696 107.035C319.785 94.8268 332.087 84.0404 342.863 72.3577C353.884 60.4046 365.237 49.055 377.352 38.207C387.045 29.53 394.732 18.8844 404.805 10.7017C408.029 61.899 405.404 113.248 407.644 164.488C407.727 166.285 409.274 168.452 411.331 168.176C462.925 161.337 512.566 142.567 564.785 140.312C557.587 163.973 537.441 182.713 522.754 201.791C503.937 226.228 484.161 249.952 465.467 274.479C462.514 274.505 461.223 278.531 463.134 280.749L463.13 280.745Z"/>
    <path d="M190.183 268.772C203.871 271.746 217.767 273.538 231.782 273.246C244.026 272.991 256.599 272.725 268.724 270.882C282.636 268.767 296.312 265.048 310.151 262.475C324.239 259.845 338.156 258.501 352.49 258.345C358.563 258.277 364.729 258.007 370.74 258.996C377.714 260.132 383.558 264.85 389.798 267.85C399.115 272.34 422.787 270.173 415.543 254.386C411.84 246.313 405.027 242.917 396.871 240.408C384.251 236.533 371.902 232.585 358.819 230.579C334.027 226.777 309.33 235.47 285.423 241.205C271.923 244.439 258.882 248.434 244.85 248.298C230.303 248.163 218.068 243.215 204.282 239.908C203.209 239.647 202.282 239.85 201.542 240.303C195.511 238.267 189.318 234.96 183.406 238.033C177.328 241.189 168.922 248.731 171.078 256.579C173.536 265.553 182.371 267.079 190.183 268.772ZM181.173 248.985C188.959 240.116 198.355 248.506 207.553 249.017C208.058 249.048 208.5 248.97 208.901 248.845C215.131 250.736 221.198 252.886 227.761 253.944C236.678 255.386 245.631 256.048 254.636 255.319C274.313 253.715 294.224 246.746 313.396 242.246C323.802 239.803 334.161 236.803 344.912 236.72C356.162 236.631 367.729 239.178 378.439 242.459C386.444 244.918 395.299 246.782 402.783 250.59C409.741 254.137 409.621 262.407 401.434 262.949C395.804 263.314 390.882 260.267 386.226 257.564C371.007 248.735 353.477 250.538 336.466 251.47C315.117 252.636 293.997 258.168 273.185 262.694C251.955 267.308 226.93 267.288 205.539 264.157C199.841 263.314 170.711 260.902 181.175 248.985L181.173 248.985Z"/>
    <path d="M192.636 282.066C196.683 279.581 192.98 273.196 188.912 275.696C173.882 284.925 172.344 306.669 174.324 322.466C175.595 332.628 177.991 340.758 185.007 348.31C192.944 356.852 203.709 361.644 214.818 364.57C226.115 367.55 239.958 362.492 250.381 358.419C260.298 354.544 268.089 346.503 274.475 338.258C281.521 329.154 284.933 320.122 285.412 311.045C286.516 309.586 286.657 307.461 285.391 306.258C284.808 296.441 280.948 286.561 274.652 276.482C272.136 272.456 265.75 276.159 268.282 280.206C273.485 288.529 276.974 296.534 277.886 304.57C263.006 302.706 247.907 303.211 232.927 302.44C215.625 301.549 198.37 305.383 181.089 306.003C181.849 296.32 184.933 286.784 192.636 282.066ZM223.382 309.956C223.314 310.133 223.262 310.321 223.225 310.508C223.142 310.321 223.053 310.133 222.944 309.977C223.09 309.972 223.231 309.961 223.382 309.956ZM207.627 311.222C207.439 311.378 207.252 311.513 207.064 311.685C204.674 313.925 206.544 317.967 209.669 317.988C211.273 317.993 212.877 318.04 214.491 318.071C214.497 318.144 214.497 318.211 214.507 318.29C214.882 322.024 218.898 322.935 220.981 320.545C222.387 321.737 223.965 322.748 226.007 323.451C229.726 324.727 231.898 319.852 229.601 317.284C229.486 317.159 229.372 317.029 229.252 316.904C229.856 316.472 230.32 315.857 230.549 315.014C231.085 313.019 230.877 311.482 230.096 309.691C245.732 309.248 262.544 309.67 277.981 311.977C277.366 318.368 274.955 324.852 270.283 331.608C259.059 347.81 241.351 356.91 221.668 358.024C212.736 358.529 201.308 352.477 194.616 347.19C186.747 340.972 183.512 333.592 181.913 323.956C181.392 320.799 181.012 317.174 180.898 313.388C189.84 313.096 198.736 312.118 207.627 311.222Z"/>
    <path d="M409.143 291.399C406.58 286.581 401.554 283.633 398.179 279.467C395.179 275.769 389.997 281.029 392.96 284.685C395.112 287.342 397.606 289.487 400.122 291.784C404.809 296.071 406.653 303.269 408.169 309.175C408.492 310.435 408.737 311.727 408.908 313.045C401.231 312.201 393.991 309.571 386.346 308.357C378.085 307.05 369.835 308.753 361.632 306.649C348.034 303.149 334.31 307.409 320.55 308.68C325.446 298.415 333.529 288.992 340.383 281.227C343.519 277.675 338.321 272.43 335.164 276.008C326.3 286.05 317.118 297.357 312.362 309.795C311.294 310.67 310.867 312.133 311.101 313.467C308.539 321.873 308.138 330.773 311.278 340.123C314.304 349.112 319.731 356.983 327.497 362.388C332.419 365.815 338.497 367.539 343.752 370.362C348.398 372.857 352.986 374.424 358.236 375.101C369.329 376.529 378.542 376.341 388.116 370.263C397.762 364.133 406.922 355.424 412.157 345.227C415.079 339.539 414.688 332.326 415.891 326.211C416.959 320.784 416.756 315.846 415.891 310.404C414.839 303.644 412.329 297.389 409.141 291.399L409.143 291.399ZM406.388 339.815C404.44 348.992 393.737 356.908 386.685 362.284C378.596 368.435 370.674 368.998 360.868 368.065C351.758 367.19 343.581 362.071 335.362 358.331C326.644 354.357 321.898 346.742 318.404 338.17C315.378 330.753 315.55 323.383 317.612 316.3C323.669 316.082 329.643 315.488 335.643 314.509C341.273 313.597 346.679 312.566 352.419 312.404C353.143 312.384 353.882 312.441 354.627 312.529C352.955 314.092 352.627 317.248 355.07 318.54C354.877 320.399 356.497 322.514 358.466 322.977C358.46 323.045 358.466 323.113 358.46 323.18C357.898 326.175 360.924 329.196 363.882 327.347C365.455 326.363 366.408 325.144 367.122 323.785C367.841 323.597 368.471 323.18 368.976 322.618C369.856 323.045 370.747 323.456 371.695 323.722C375.986 324.962 377.721 319.337 374.538 316.977C373.742 316.389 372.898 315.925 372.028 315.514C377.231 315.597 382.497 315.175 387.668 315.993C395.017 317.159 401.856 319.68 409.247 320.451C409.038 327.003 407.69 333.706 406.388 339.815Z"/>
    <path d="M286.983 422.786C297.176 423.676 305.358 417.072 309.868 408.614C316.915 395.41 312.743 379.275 312.17 365.171C311.978 360.431 304.597 360.405 304.795 365.171C305.446 380.999 312.717 412.411 289.399 415.332C267.733 418.051 274.181 380.827 274.363 368.629C274.431 363.864 267.056 363.874 266.988 368.629C266.723 386.562 260.816 420.494 286.983 422.786Z"/>
    <path d="M257.076 384.079C261.159 381.647 257.451 375.266 253.352 377.709C240.488 385.371 224.212 388.313 209.461 385.532C200.347 383.813 184.112 379.485 179.571 370.24C177.472 365.969 171.112 369.709 173.201 373.964C178.503 384.761 194.122 389.104 204.68 391.98C221.794 396.636 241.977 393.068 257.076 384.079Z"/>
    <path d="M403.29 381.692C390.753 389.317 378.82 394.312 363.888 393.557C357.242 393.218 350.727 392.124 344.263 390.583C336.945 388.838 332.419 385.588 326.05 381.958C321.904 379.598 318.196 385.973 322.326 388.327C328.367 391.77 332.841 395.52 339.738 397.145C347.743 399.036 355.686 400.343 363.883 400.937C379.919 402.093 393.576 396.223 407.008 388.062C411.076 385.598 407.363 379.213 403.29 381.692Z"/>
    <path d="M211.276 492.479C206.938 489.823 204.271 485.713 201.563 481.526C198.136 476.239 197.615 472.036 197.656 465.832C197.693 461.067 190.307 461.077 190.281 465.832C190.229 472.562 190.474 478.161 194.313 483.9C198.12 489.588 201.583 495.182 207.552 498.843C211.62 501.343 215.328 494.958 211.276 492.479Z"/>
    <path d="M380.65 502.586C391.358 495.372 397.39 485.247 397.66 472.231C397.759 467.465 390.379 467.481 390.285 472.231C390.077 482.533 385.442 490.482 376.936 496.204C373.004 498.85 376.691 505.247 380.65 502.586Z"/>
    <path d="M368.316 475.065C344.051 464.868 319.634 456.456 292.972 457.107C266.592 457.747 240.232 466.211 215.087 473.467C210.524 474.779 212.467 481.904 217.051 480.581C226.337 477.899 235.712 475.139 245.165 472.675C245.306 475.811 245.936 478.811 248.353 481.232C254.03 486.909 262.921 485.316 265.607 494.529C268.409 504.16 276.425 508.909 285.914 504.014C289.544 502.139 292.497 497.233 293.008 493.269C293.674 488.003 294.607 484.951 298.654 481.529C300.601 479.889 302.049 478.342 303.424 476.222C305.617 472.831 305.94 468.383 304.648 464.618C326.118 466.045 346.612 473.868 366.367 482.17C370.742 484.029 372.627 476.883 368.315 475.066L368.316 475.065ZM290.103 479.331C284.957 484.378 287.645 491.524 283.186 496.795C276.645 498.477 273.15 497.066 272.702 492.571C272.483 491.519 272.155 490.509 271.707 489.545C270.332 486.811 268.853 484.884 266.561 482.8C261.217 477.962 253.285 479.061 252.561 470.816C265.874 467.608 279.337 465.149 292.957 464.483C293.785 464.446 294.608 464.436 295.436 464.425C295.697 464.597 295.973 464.753 296.301 464.873C303.301 467.42 291.842 477.628 290.103 479.331Z"/>
    <path d="M257.916 213.892C277.577 216.272 297.88 215.819 316.588 208.757C320.994 207.09 319.088 199.955 314.625 201.642C296.463 208.502 276.985 208.824 257.917 206.517C253.198 205.939 253.26 213.325 257.916 213.892Z"/>
    <path d="M235.09 231.519C242.407 232.206 249.111 233.977 256.559 234.118C264.877 234.274 273.314 233.878 281.532 232.555C295.948 230.243 313.23 218.837 328.059 222.977C332.653 224.264 334.601 217.139 330.023 215.863C317.57 212.389 303.591 218.597 292.075 222.665C273.325 229.3 254.101 225.925 235.091 224.144C230.346 223.691 230.392 231.076 235.09 231.519Z"/>
</svg>
