<svg width="256" height="256" viewBox="0 0 256 256" fill="none" xmlns="http://www.w3.org/2000/svg">
<path d="M121.173 170.866V205.273H104.446C100.622 205.273 97.279 208.619 97.279 212.439C97.279 216.263 100.626 219.606 104.446 219.606H121.173V235.856C121.173 239.679 124.519 243.023 128.339 243.023C132.163 243.023 135.506 239.676 135.506 235.856V219.609H152.233C156.056 219.609 159.4 216.263 159.4 212.443C159.4 208.619 156.053 205.276 152.233 205.276H135.506V170.87C175.646 167.046 207.186 133.596 207.186 92.4996C207.186 49.0129 171.823 13.6533 128.34 13.6533C84.8529 13.65 49.4933 49.0103 49.4933 92.4971C49.4933 133.594 81.03 167.524 121.173 170.867L121.173 170.866ZM128.339 27.9842C163.702 27.9842 192.853 57.1341 192.853 92.4979C192.853 127.862 163.703 157.012 128.339 157.012C92.9755 157.012 63.8256 127.862 63.8256 92.4979C63.8256 57.1341 92.9755 27.9842 128.339 27.9842Z" fill="black"/>
</svg>
