<svg width="256" height="256" viewBox="0 0 256 256" fill="none" xmlns="http://www.w3.org/2000/svg">
<path d="M113.357 221.832C134.384 221.832 154.454 213.709 169.268 198.896C198.417 169.746 199.851 123.869 174.048 92.8093L207.497 59.3595V76.0865C207.497 79.9099 210.844 83.2532 214.664 83.2532C218.487 83.2532 221.831 79.9065 221.831 76.0865V41.6767C221.831 40.7201 221.831 39.7667 221.354 39.2867C220.397 37.3767 219.444 35.94 217.531 35.4634C216.574 34.9867 215.621 34.9867 215.141 34.9867H181.21C177.387 34.9867 174.044 38.3334 174.044 42.1533C174.044 45.9767 177.391 49.32 181.21 49.32H197.938L164.488 82.7698C150.151 70.8231 132.471 64.61 113.835 64.61C92.8077 64.61 72.7382 72.7333 57.9243 87.5467C27.3408 118.13 27.3408 168.307 57.9243 198.89C72.2611 213.71 92.3307 221.833 113.358 221.833L113.357 221.832ZM67.4803 97.5871C79.427 85.6405 95.6736 78.4742 112.877 78.4742C130.08 78.4742 146.327 85.1641 158.273 97.5871C183.6 122.914 183.6 163.534 158.273 188.86C146.327 200.806 130.08 207.973 112.877 207.973C95.6736 207.973 79.427 201.283 67.4803 188.86C42.6304 163.533 42.6304 122.436 67.4803 97.5871Z" fill="black"/>
</svg>
